<svg width="375" height="400" viewBox="0 0 375 400" fill="none" xmlns="http://www.w3.org/2000/svg">
<path d="M0 0H375V340C375 362.091 357.091 380 335 380H40C17.9086 380 0 362.091 0 340V0Z" fill="url(#paint0_linear_66_1313)"/>
<path d="M0 267.492V380H105V267.492H90.8464V239.939H68.464L51.0188 154L34.232 239.939H9.87461V267.492H0Z" fill="white" fill-opacity="0.2"/>
<rect x="13" y="280" width="9" height="15" fill="white" fill-opacity="0.2"/>
<rect x="28" y="280" width="9" height="15" fill="white" fill-opacity="0.2"/>
<rect x="44" y="280" width="9" height="15" fill="white" fill-opacity="0.2"/>
<rect x="60" y="280" width="9" height="15" fill="white" fill-opacity="0.2"/>
<rect x="76" y="280" width="9" height="15" fill="white" fill-opacity="0.2"/>
<path d="M273 280.255V394.043L426 400V280.255H406.564V226.043H385.134V176H353.5V226.043H319.5V280.255H273Z" fill="white" fill-opacity="0.2"/>
<path d="M187 363.867V393H254V363.867L221.258 351L187 363.867Z" fill="white" fill-opacity="0.2"/>
<defs>
<linearGradient id="paint0_linear_66_1313" x1="356" y1="31.2596" x2="53.8347" y2="370.856" gradientUnits="userSpaceOnUse">
<stop stop-color="#12A817"/>
<stop offset="1" stop-color="#5EBD3C"/>
</linearGradient>
</defs>
</svg>
